<svg width="37" height="37" viewBox="0 0 37 37" fill="none" xmlns="http://www.w3.org/2000/svg">
<path d="M5.77083 0.875H31.2292C33.9331 0.875 36.125 3.06694 36.125 5.77083V31.2292C36.125 33.9331 33.9331 36.125 31.2292 36.125H5.77083C3.06694 36.125 0.875 33.9331 0.875 31.2292V5.77083C0.875 3.06694 3.06694 0.875 5.77083 0.875ZM5.77083 2.83333C4.1485 2.83333 2.83333 4.1485 2.83333 5.77083V31.2292C2.83333 32.8515 4.1485 34.1667 5.77083 34.1667H31.2292C32.8515 34.1667 34.1667 32.8515 34.1667 31.2292V5.77083C34.1667 4.1485 32.8515 2.83333 31.2292 2.83333H5.77083ZM24.6618 12.9118C25.0442 12.5294 25.6642 12.5294 26.0465 12.9118C26.4289 13.2942 26.4289 13.9142 26.0465 14.2965L16.2549 24.0882C15.8725 24.4706 15.2525 24.4706 14.8701 24.0882L10.9535 20.1715C10.5711 19.7892 10.5711 19.1692 10.9535 18.7868C11.3358 18.4044 11.9558 18.4044 12.3382 18.7868L15.5625 22.0111L24.6618 12.9118Z" fill="#57C700"/>
</svg>
